<svg width="87" height="35" viewBox="0 0 87 35" fill="none" xmlns="http://www.w3.org/2000/svg">
<path d="M6.75781 10.4844C7.2526 11.0781 8.02865 11.375 9.08594 11.375C10.0755 11.375 11.1016 11.2083 12.1641 10.875C12.513 10.7656 12.7708 10.7109 12.9375 10.7109C13.2396 10.7109 13.3906 10.7969 13.3906 10.9688C13.3906 11.2188 13.1927 11.487 12.7969 11.7734C12.401 12.0547 11.901 12.3073 11.2969 12.5312C10.6927 12.7552 10.0078 12.9401 9.24219 13.0859C8.48177 13.237 7.75781 13.3125 7.07031 13.3125C5.85156 13.3125 4.77865 13.1224 3.85156 12.7422C2.92448 12.362 2.20573 11.8203 1.69531 11.1172C1.1849 10.4089 0.929688 9.63802 0.929688 8.80469C0.929688 7.96615 1.07031 7.19271 1.35156 6.48438C1.63281 5.77083 2.01302 5.1276 2.49219 4.55469C2.97656 3.98177 3.53906 3.45052 4.17969 2.96094C4.82552 2.47135 5.50521 2.0625 6.21875 1.73438C7.74479 1.03646 9.20833 0.6875 10.6094 0.6875C12.0104 0.6875 13.099 0.976562 13.875 1.55469C14.651 2.1276 15.0391 2.83073 15.0391 3.66406C15.0391 4.57031 14.7708 5.36458 14.2344 6.04688C13.9792 6.38021 13.638 6.64583 13.2109 6.84375C12.7891 7.04167 12.3125 7.14062 11.7812 7.14062C11.4271 7.14062 11.125 7.09115 10.875 6.99219C10.401 6.80469 10.1641 6.53646 10.1641 6.1875C10.1641 6.06771 10.2995 5.72917 10.5703 5.17188C10.8464 4.61458 11.1224 4.04167 11.3984 3.45312C11.6745 2.85938 11.8125 2.45312 11.8125 2.23438C11.8125 2.01042 11.7188 1.85677 11.5312 1.77344C11.3438 1.6901 11.0755 1.64844 10.7266 1.64844C10.3828 1.64844 9.99219 1.78125 9.55469 2.04688C9.11719 2.30729 8.69531 2.66667 8.28906 3.125C7.88281 3.57812 7.51042 4.08333 7.17188 4.64062C6.83333 5.19792 6.5625 5.80208 6.35938 6.45312C6.15625 7.09896 6.05469 7.67969 6.05469 8.19531C6.05469 8.71094 6.11198 9.15104 6.22656 9.51562C6.34635 9.88021 6.52344 10.2031 6.75781 10.4844ZM20.8516 11.3281C21.8307 11.3281 22.6484 10.5781 23.3047 9.07812C23.6068 8.39062 23.7578 7.83333 23.7578 7.40625C23.7578 6.97917 23.6849 6.6849 23.5391 6.52344C23.3984 6.36198 23.1172 6.28125 22.6953 6.28125C22.2786 6.28125 21.8255 6.47656 21.3359 6.86719C20.8516 7.2526 20.4609 7.73958 20.1641 8.32812C19.8672 8.91667 19.7188 9.44792 19.7188 9.92188C19.7188 10.3906 19.8229 10.7422 20.0312 10.9766C20.2396 11.2109 20.513 11.3281 20.8516 11.3281ZM24.9141 4.71094L28.4922 4.875C28.6276 4.875 28.7292 4.91667 28.7969 5C28.8646 5.07812 28.8984 5.16667 28.8984 5.26562C28.8984 5.64583 28.7396 6.2526 28.4219 7.08594C28.1094 7.91406 27.7943 8.73698 27.4766 9.55469C27.1641 10.3672 27.0078 10.9062 27.0078 11.1719C27.0078 11.4323 27.0469 11.599 27.125 11.6719C27.2083 11.7448 27.3646 11.7812 27.5938 11.7812C27.8229 11.7812 28.2396 11.6719 28.8438 11.4531C29.4531 11.2292 29.8646 11.0599 30.0781 10.9453C30.2969 10.8307 30.4635 10.7734 30.5781 10.7734C30.7812 10.7734 30.8828 10.8646 30.8828 11.0469C30.8828 11.4323 30.1016 11.9375 28.5391 12.5625C28.013 12.776 27.3776 12.9531 26.6328 13.0938C25.8932 13.2396 25.1406 13.3125 24.375 13.3125C23.099 13.3125 22.3307 12.9062 22.0703 12.0938C21.2578 12.9062 20.1641 13.3125 18.7891 13.3125C17.8464 13.3125 17.0495 13.0859 16.3984 12.6328C15.6901 12.138 15.3359 11.3594 15.3359 10.2969C15.3359 9.17708 15.6667 8.14583 16.3281 7.20312C17.0521 6.15625 18.0208 5.4349 19.2344 5.03906C19.9062 4.82031 20.6276 4.71094 21.3984 4.71094C22.5807 4.71094 23.5 5.0026 24.1562 5.58594C24.1615 5.55469 24.1641 5.50521 24.1641 5.4375L24.1562 5.10156C24.1562 4.84115 24.4089 4.71094 24.9141 4.71094ZM33.5312 1.49219L37.3594 1.40625C37.4948 1.40625 37.5964 1.44792 37.6641 1.53125C37.7318 1.60938 37.7656 1.69792 37.7656 1.79688C37.7656 2.34375 37.2656 3.92188 36.2656 6.53125C35.2708 9.14062 34.7734 10.6771 34.7734 11.1406C34.7734 11.3333 34.8125 11.4792 34.8906 11.5781C34.9688 11.6719 35.1068 11.7188 35.3047 11.7188C35.9245 11.7188 36.8854 11.4323 38.1875 10.8594C38.3177 10.8021 38.4427 10.7734 38.5625 10.7734C38.776 10.7734 38.8828 10.8568 38.8828 11.0234C38.8828 11.1641 38.776 11.3099 38.5625 11.4609C38.349 11.612 38.0547 11.7786 37.6797 11.9609C37.3047 12.1432 36.849 12.3411 36.3125 12.5547C35.776 12.7682 35.1667 12.9479 34.4844 13.0938C33.8073 13.2396 33.0964 13.3125 32.3516 13.3125C31.6068 13.3125 31.0104 13.2109 30.5625 13.0078C30.1146 12.8099 29.8906 12.4427 29.8906 11.9062C29.8906 11.5312 30.3724 10.0599 31.3359 7.49219C31.6953 6.53385 32.026 5.53906 32.3281 4.50781C32.6302 3.47135 32.7812 2.69531 32.7812 2.17969L32.7734 1.88281C32.7734 1.6224 33.026 1.49219 33.5312 1.49219ZM40.3672 4.96094L44.0703 4.875C44.2057 4.875 44.3073 4.91667 44.375 5C44.4427 5.07812 44.4766 5.17708 44.4766 5.29688C44.4766 5.41146 44.4479 5.59896 44.3906 5.85938C45.7812 5.09375 46.9922 4.71094 48.0234 4.71094C48.4714 4.71094 48.8854 4.82292 49.2656 5.04688C49.651 5.27083 49.901 5.60156 50.0156 6.03906C51.7135 5.15365 53.1198 4.71094 54.2344 4.71094C54.724 4.71094 55.1562 4.84896 55.5312 5.125C55.9323 5.42708 56.1328 5.85417 56.1328 6.40625C56.1328 6.95312 56.0365 7.53125 55.8438 8.14062C55.6562 8.74479 55.4661 9.3099 55.2734 9.83594C55.0859 10.362 54.9922 10.7344 54.9922 10.9531C54.9922 11.1667 55.0469 11.3281 55.1562 11.4375C55.2656 11.5469 55.4115 11.6016 55.5938 11.6016C56.2656 11.6016 57.099 11.3672 58.0938 10.8984C58.2812 10.8151 58.4245 10.7734 58.5234 10.7734C58.7578 10.7734 58.875 10.8672 58.875 11.0547C58.875 11.2214 58.7734 11.3802 58.5703 11.5312C58.3724 11.6771 58.0833 11.8385 57.7031 12.0156C57.3229 12.1927 56.8516 12.3828 56.2891 12.5859C55.7318 12.7891 55.0755 12.9609 54.3203 13.1016C53.5651 13.2422 52.8906 13.3125 52.2969 13.3125C51.7083 13.3125 51.2682 13.2135 50.9766 13.0156C50.6849 12.8177 50.5391 12.5625 50.5391 12.25C50.5391 11.9375 50.638 11.4688 50.8359 10.8438C51.0391 10.2188 51.2422 9.60156 51.4453 8.99219C51.6484 8.3776 51.75 7.93229 51.75 7.65625C51.75 7.375 51.6823 7.17448 51.5469 7.05469C51.4115 6.92969 51.2083 6.86719 50.9375 6.86719C50.6719 6.86719 50.3776 6.90885 50.0547 6.99219C49.9714 7.88281 49.625 9.23958 49.0156 11.0625C48.7604 11.8281 48.6172 12.3073 48.5859 12.5C48.5547 12.6927 48.5339 12.8047 48.5234 12.8359C48.513 12.862 48.4948 12.8984 48.4688 12.9453C48.4219 13.0286 48.3229 13.0703 48.1719 13.0703C47.4219 13.0703 46.6797 13.0833 45.9453 13.1094C45.2161 13.1406 44.7448 13.1562 44.5312 13.1562C44.3229 13.1562 44.2188 13.0339 44.2188 12.7891C44.2188 12.5443 44.2995 12.1797 44.4609 11.6953C44.6224 11.2109 44.8021 10.7292 45 10.25C45.5156 8.97917 45.7734 8.03125 45.7734 7.40625C45.7734 6.94271 45.4714 6.71094 44.8672 6.71094C44.612 6.71094 44.3698 6.7526 44.1406 6.83594C43.9375 7.52865 43.5859 8.625 43.0859 10.125C42.5911 11.625 42.3125 12.4688 42.25 12.6562C42.1667 12.9323 42.0182 13.0703 41.8047 13.0703L37.7891 13.1562C37.7318 13.1562 37.6667 13.1198 37.5938 13.0469C37.526 12.9792 37.4922 12.8984 37.4922 12.8047C37.4922 12.7057 37.6016 12.3646 37.8203 11.7812C38.0443 11.1927 38.2891 10.5625 38.5547 9.89062C38.8203 9.21354 39.0625 8.47135 39.2812 7.66406C39.5052 6.85156 39.6172 6.17969 39.6172 5.64844L39.6094 5.35156C39.6094 5.09115 39.862 4.96094 40.3672 4.96094Z" fill="#0F0F0D"/>
<path d="M21.5938 24.4141L20.6719 24.6016C20.5573 24.6016 20.4714 24.5859 20.4141 24.5547C20.3568 24.5234 20.3281 24.4479 20.3281 24.3281C20.3281 24.1406 20.5625 23.8438 21.0312 23.4375C21.5 23.026 22.1589 22.6589 23.0078 22.3359C23.8568 22.0078 24.6068 21.8438 25.2578 21.8438C25.9141 21.8438 26.362 21.9792 26.6016 22.25C26.8411 22.5156 26.9609 22.9531 26.9609 23.5625C26.9609 23.6406 26.9505 23.7734 26.9297 23.9609C28.8203 22.4401 30.5573 21.6797 32.1406 21.6797C32.8854 21.6797 33.4505 21.849 33.8359 22.1875C34.2214 22.526 34.4141 23.0052 34.4141 23.625V23.6953C36.138 22.3516 37.6797 21.6797 39.0391 21.6797C39.8099 21.6797 40.4167 21.862 40.8594 22.2266C41.3021 22.5859 41.5234 23.0729 41.5234 23.6875C41.5234 24.2969 41.388 24.9974 41.1172 25.7891C40.8516 26.5807 40.5599 27.2891 40.2422 27.9141C39.388 29.5964 38.9609 30.7109 38.9609 31.2578C38.9609 31.6068 39.0651 31.8828 39.2734 32.0859C39.4818 32.2839 39.7005 32.4036 39.9297 32.4453C40.1589 32.4818 40.3073 32.5104 40.375 32.5312C40.4479 32.5469 40.5286 32.5729 40.6172 32.6094C40.7839 32.6719 40.8672 32.7786 40.8672 32.9297C40.8672 33.2995 40.4635 33.6224 39.6562 33.8984C38.8542 34.1745 37.8646 34.3125 36.6875 34.3125C35.125 34.3125 34.3438 33.7318 34.3438 32.5703C34.3438 32.0547 34.474 31.4115 34.7344 30.6406C34.9948 29.8646 35.2812 29.1458 35.5938 28.4844C36.4219 26.7188 36.8359 25.5391 36.8359 24.9453C36.8359 24.7266 36.7708 24.5495 36.6406 24.4141C36.5156 24.2786 36.3177 24.2109 36.0469 24.2109C35.5729 24.2109 34.9714 24.3984 34.2422 24.7734C34.0391 25.5651 33.6458 26.6562 33.0625 28.0469C32.4792 29.4323 32.0625 30.5391 31.8125 31.3672C31.5625 32.1901 31.4219 32.8984 31.3906 33.4922C31.3802 33.6641 31.3307 33.8073 31.2422 33.9219C31.1589 34.0365 31.0495 34.0938 30.9141 34.0938L27.7422 34.1406C27.1849 34.1406 26.8438 34.0469 26.7188 33.8594C26.6615 33.7708 26.6328 33.6406 26.6328 33.4688C26.6328 33.2969 26.6927 32.9609 26.8125 32.4609C26.9323 31.9609 27.1641 31.2656 27.5078 30.375C27.8568 29.4792 28.1875 28.7005 28.5 28.0391C29.2812 26.3672 29.6719 25.3255 29.6719 24.9141C29.6719 24.4401 29.3854 24.2031 28.8125 24.2031C28.2396 24.2031 27.5521 24.4271 26.75 24.875C26.5729 25.5469 26.2422 26.474 25.7578 27.6562C25.2786 28.8333 24.8594 29.9062 24.5 30.875C24.1458 31.8438 23.9688 32.5703 23.9688 33.0547L23.9922 33.5703C23.9922 33.7318 23.9036 33.8594 23.7266 33.9531C23.5495 34.0469 23.3646 34.0938 23.1719 34.0938L20.2734 34.1406C19.6953 34.1406 19.3438 34.0417 19.2188 33.8438C19.1615 33.7448 19.1328 33.5938 19.1328 33.3906C19.1328 33.1823 19.1771 32.8854 19.2656 32.5C19.3542 32.1146 19.6354 31.362 20.1094 30.2422C20.5885 29.1172 21.0234 28.0729 21.4141 27.1094C21.8099 26.1458 22.0078 25.5078 22.0078 25.1953C22.0078 24.8828 21.974 24.6745 21.9062 24.5703C21.8385 24.4661 21.7344 24.4141 21.5938 24.4141ZM50.2031 22.9844C50.2031 23.5417 49.8932 24.0286 49.2734 24.4453C48.6589 24.8568 48.0078 25.0625 47.3203 25.0625C46.638 25.0625 46.1068 24.9245 45.7266 24.6484C45.3464 24.3672 45.1562 24.026 45.1562 23.625C45.1562 23.224 45.3021 22.8594 45.5938 22.5312C45.8854 22.2031 46.263 21.9453 46.7266 21.7578C47.1953 21.5703 47.7031 21.4766 48.25 21.4766C48.7969 21.4766 49.2578 21.6224 49.6328 21.9141C50.013 22.2005 50.2031 22.5573 50.2031 22.9844ZM48.0078 32.6797C48.362 32.6797 48.8411 32.5964 49.4453 32.4297C50.0547 32.2578 50.4974 32.1068 50.7734 31.9766C51.0495 31.8411 51.2422 31.7734 51.3516 31.7734C51.5703 31.7734 51.6797 31.8828 51.6797 32.1016C51.6797 32.2005 51.599 32.3125 51.4375 32.4375C50.9062 32.8333 49.9505 33.2448 48.5703 33.6719C47.1901 34.099 45.9583 34.3125 44.875 34.3125C44.2031 34.3125 43.6406 34.2057 43.1875 33.9922C42.7344 33.7786 42.5078 33.4531 42.5078 33.0156C42.5078 32.75 42.7344 32.099 43.1875 31.0625C44.0417 29.099 44.4688 27.6198 44.4688 26.625L44.4609 26.3281C44.4609 26.0677 44.7135 25.9375 45.2188 25.9375L49.0781 25.8516C49.2135 25.8516 49.3151 25.8932 49.3828 25.9766C49.4505 26.0547 49.4844 26.1432 49.4844 26.2422C49.4844 26.6016 49.3203 27.1953 48.9922 28.0234C48.6641 28.8464 48.3359 29.6562 48.0078 30.4531C47.6797 31.25 47.5156 31.8203 47.5156 32.1641C47.5156 32.5078 47.6797 32.6797 48.0078 32.6797ZM66.0859 31.7734C66.2786 31.7734 66.375 31.8646 66.375 32.0469C66.375 32.224 66.2786 32.3802 66.0859 32.5156C65.8984 32.651 65.6198 32.8073 65.25 32.9844C64.8802 33.1562 64.4193 33.3464 63.8672 33.5547C63.3203 33.763 62.6849 33.9401 61.9609 34.0859C61.2422 34.237 60.5547 34.3125 59.8984 34.3125C58.3516 34.3125 57.5781 33.9583 57.5781 33.25C57.5781 32.7917 57.8385 31.974 58.3594 30.7969C58.8854 29.6146 59.1484 28.8177 59.1484 28.4062C59.1484 27.9427 58.7865 27.7109 58.0625 27.7109C57.7344 27.7109 57.362 27.7526 56.9453 27.8359C56.7474 28.5339 56.3932 29.6432 55.8828 31.1641C55.3776 32.6849 55.0911 33.5495 55.0234 33.7578C54.9609 33.9661 54.8229 34.0703 54.6094 34.0703L50.5859 34.1562C50.5286 34.1562 50.4635 34.1198 50.3906 34.0469C50.3229 33.9792 50.2891 33.8984 50.2891 33.8047C50.2891 33.7057 50.3984 33.3646 50.6172 32.7812C50.8411 32.1927 51.0859 31.5625 51.3516 30.8906C51.6224 30.2135 51.8672 29.4714 52.0859 28.6641C52.3099 27.8516 52.4219 27.1797 52.4219 26.6484L52.4141 26.3516C52.4141 26.0911 52.6667 25.9609 53.1719 25.9609L56.875 25.875C57.0104 25.875 57.112 25.9167 57.1797 26C57.2474 26.0781 57.2812 26.1771 57.2812 26.2969C57.2812 26.4115 57.2526 26.599 57.1953 26.8594C59.0286 26.0938 60.5339 25.7109 61.7109 25.7109C62.2109 25.7109 62.6667 25.849 63.0781 26.125C63.5365 26.4323 63.7656 26.8984 63.7656 27.5234C63.7656 28.1641 63.5234 29.0026 63.0391 30.0391C62.5547 31.0755 62.3125 31.7161 62.3125 31.9609C62.3125 32.4453 62.5052 32.6875 62.8906 32.6875C63.1354 32.6875 63.5521 32.5964 64.1406 32.4141C64.7344 32.2266 65.1719 32.0729 65.4531 31.9531C65.7396 31.8333 65.9505 31.7734 66.0859 31.7734ZM80.6875 31.7734C80.9219 31.7734 81.0391 31.8802 81.0391 32.0938C81.0391 32.2448 80.9297 32.401 80.7109 32.5625C80.1276 32.9896 79.2552 33.388 78.0938 33.7578C76.9375 34.1276 75.9271 34.3125 75.0625 34.3125C74.1979 34.3125 73.5599 34.2214 73.1484 34.0391C72.7422 33.862 72.4609 33.5469 72.3047 33.0938C72.0026 33.401 71.5677 33.6823 71 33.9375C70.4323 34.1875 69.8307 34.3125 69.1953 34.3125C68.5651 34.3125 68.0495 34.2552 67.6484 34.1406C67.2474 34.0312 66.8828 33.862 66.5547 33.6328C66.2266 33.4036 65.9661 33.0911 65.7734 32.6953C65.5859 32.2943 65.4922 31.8281 65.4922 31.2969C65.4922 30.7656 65.5729 30.237 65.7344 29.7109C65.8958 29.1849 66.1432 28.6823 66.4766 28.2031C66.8151 27.7188 67.2188 27.2917 67.6875 26.9219C68.1562 26.5521 68.724 26.2578 69.3906 26.0391C70.0625 25.8203 70.7839 25.7109 71.5547 25.7109C72.8203 25.7109 73.8724 26.026 74.7109 26.6562C75.0026 24.8021 75.1484 23.5911 75.1484 23.0234L75.1406 22.7969C75.1406 22.5365 75.3932 22.4062 75.8984 22.4062L79.3984 22.5703C79.5234 22.5703 79.6224 22.6094 79.6953 22.6875C79.7682 22.7604 79.8047 22.8438 79.8047 22.9375C79.8047 23.75 79.375 25.4167 78.5156 27.9375C77.6562 30.4531 77.2266 31.8333 77.2266 32.0781C77.2266 32.3229 77.2604 32.4974 77.3281 32.6016C77.401 32.7057 77.5495 32.7578 77.7734 32.7578C77.9974 32.7578 78.3828 32.6641 78.9297 32.4766C79.4766 32.2891 79.888 32.125 80.1641 31.9844C80.4401 31.8438 80.6146 31.7734 80.6875 31.7734ZM71.0078 32.3281C71.987 32.3281 72.8047 31.5781 73.4609 30.0781C73.8359 29.3594 74.0234 28.724 74.0234 28.1719C74.0234 27.8698 73.9505 27.638 73.8047 27.4766C73.6641 27.3151 73.3802 27.2344 72.9531 27.2344C72.5312 27.2344 72.0677 27.4323 71.5625 27.8281C71.0573 28.224 70.6484 28.7214 70.3359 29.3203C70.0286 29.9141 69.875 30.4479 69.875 30.9219C69.875 31.3906 69.9792 31.7422 70.1875 31.9766C70.3958 32.2109 70.6693 32.3281 71.0078 32.3281ZM86.0469 33.3359C85.7448 33.6745 85.3464 33.9427 84.8516 34.1406C84.362 34.3385 83.8255 34.4375 83.2422 34.4375C82.6641 34.4375 82.1745 34.2891 81.7734 33.9922C81.3724 33.6953 81.1719 33.3359 81.1719 32.9141C81.1719 32.4922 81.3255 32.1094 81.6328 31.7656C81.9453 31.4167 82.3464 31.1432 82.8359 30.9453C83.3255 30.7474 83.8594 30.6484 84.4375 30.6484C85.0208 30.6484 85.5104 30.8021 85.9062 31.1094C86.3073 31.4115 86.5078 31.7734 86.5078 32.1953C86.5078 32.612 86.3542 32.9922 86.0469 33.3359Z" fill="#B9A427"/>
</svg>
